# xmcd CD database file
# Copyright (C) 1997 Ti Kan
# 
# Track frame offsets:
#     215
#     15490
#     27742
#     41080
#     51455
#     67957
#     81177
#     94755
#     106252
#     124290
#     138050
#     154282
# 
# Disc length: 2234 seconds
# 
# Revision: 1
# Processed by: cddbd v1.4b41PL1 Copyright (c) Steve Scherf et al.
# Submitted via: DiscPlay 4.0.4
# 
DISCID=a008b80c
DTITLE=John Lee Hooker - The Folklore Of John Lee Hooker
DYEAR=1900
DGENRE=
TTITLE0=Tupelo
TTITLE1=I'm Mad Again
TTITLE2=I'm Goin' Upstairs
TTITLE3=Want Ad Blues
TTITLE4=Five Long Years
TTITLE5=I Like To See You Walk
TTITLE6=The Hobo
TTITLE7=Hard Headed Woman
TTITLE8=Wednesday Evening Blues
TTITLE9=Take Me As I Am
TTITLE10=My First Wife Left Me
TTITLE11=You're Looking Good Tonight
EXTD=
EXTT0=
EXTT1=
EXTT2=
EXTT3=
EXTT4=
EXTT5=
EXTT6=
EXTT7=
EXTT8=
EXTT9=
EXTT10=
EXTT11=
PLAYORDER=
